<svg width="228" height="24" viewBox="0 0 228 24" fill="none" xmlns="http://www.w3.org/2000/svg">
<path d="M0.656 23V0.599998H6.32L17.2 15.512L15.888 15.192C15.7813 14.4027 15.6853 13.688 15.6 13.048C15.536 12.408 15.472 11.8 15.408 11.224C15.3653 10.648 15.3227 10.072 15.28 9.496C15.2587 8.92 15.248 8.29067 15.248 7.608C15.248 6.92533 15.248 6.15733 15.248 5.304V0.599998H21.36V23H15.632L3.92 7L6.128 7.544C6.23467 8.41867 6.32 9.176 6.384 9.816C6.46933 10.456 6.53333 11.032 6.576 11.544C6.61867 12.056 6.65067 12.5467 6.672 13.016C6.71467 13.4853 6.736 13.9867 6.736 14.52C6.75733 15.0533 6.768 15.6613 6.768 16.344V23H0.656ZM27.3272 23V0.599998H43.6152V5.816H33.4072V17.784H44.0953V23H27.3272ZM30.3352 14.104V9.176H42.3353V14.104H30.3352ZM61.989 23L55.045 12.952L46.149 0.599998H53.797L60.581 10.52L69.637 23H61.989ZM45.989 23L54.533 10.808L59.941 13.336L53.317 23H45.989ZM61.093 12.6L55.717 10.168L61.989 0.599998H69.317L61.093 12.6ZM81.961 23.192C80.0623 23.192 78.3663 22.8187 76.873 22.072C75.401 21.304 74.2383 20.2587 73.385 18.936C72.553 17.6133 72.137 16.0987 72.137 14.392V0.599998H78.537V14.104C78.537 14.808 78.6863 15.4373 78.985 15.992C79.2837 16.5253 79.689 16.952 80.201 17.272C80.7343 17.5707 81.321 17.72 81.961 17.72C82.665 17.72 83.2837 17.5707 83.817 17.272C84.3503 16.952 84.777 16.5253 85.097 15.992C85.417 15.4373 85.577 14.808 85.577 14.104V0.599998H91.785V14.392C91.785 16.0987 91.3583 17.6133 90.505 18.936C89.673 20.2587 88.521 21.304 87.049 22.072C85.577 22.8187 83.881 23.192 81.961 23.192ZM105.083 23.32C103.483 23.32 102.054 23.1387 100.795 22.776C99.5582 22.4133 98.4595 21.8907 97.4995 21.208C96.5608 20.5253 95.7182 19.7253 94.9715 18.808L98.6835 14.616C99.7502 16.0027 100.849 16.9307 101.979 17.4C103.11 17.848 104.209 18.072 105.275 18.072C105.745 18.072 106.171 18.0293 106.555 17.944C106.939 17.8373 107.227 17.6773 107.419 17.464C107.633 17.2293 107.739 16.9413 107.739 16.6C107.739 16.3013 107.654 16.0453 107.483 15.832C107.313 15.6187 107.078 15.4373 106.779 15.288C106.481 15.1173 106.15 14.968 105.787 14.84C105.425 14.712 105.062 14.616 104.699 14.552C104.337 14.4667 103.985 14.3813 103.643 14.296C102.385 14.0187 101.286 13.6667 100.347 13.24C99.4088 12.8133 98.6195 12.312 97.9795 11.736C97.3608 11.1387 96.8915 10.456 96.5715 9.688C96.2728 8.92 96.1235 8.056 96.1235 7.096C96.1235 6.05067 96.3688 5.09067 96.8595 4.216C97.3502 3.34133 98.0008 2.59467 98.8115 1.976C99.6222 1.336 100.55 0.855999 101.595 0.535999C102.662 0.194665 103.771 0.0239983 104.923 0.0239983C106.502 0.0239983 107.846 0.183999 108.955 0.504C110.065 0.802666 110.993 1.24 111.739 1.816C112.507 2.392 113.169 3.064 113.723 3.832L109.947 7.48C109.499 6.98933 109.009 6.584 108.475 6.264C107.963 5.944 107.43 5.70933 106.875 5.56C106.321 5.38933 105.755 5.304 105.179 5.304C104.646 5.304 104.177 5.35733 103.771 5.464C103.387 5.57067 103.089 5.73067 102.875 5.944C102.662 6.136 102.555 6.40267 102.555 6.744C102.555 7.04267 102.673 7.30933 102.907 7.544C103.142 7.75733 103.441 7.93867 103.803 8.088C104.166 8.23733 104.55 8.36533 104.955 8.472C105.382 8.55733 105.766 8.632 106.107 8.696C107.281 8.93067 108.347 9.24 109.307 9.624C110.289 9.98667 111.142 10.456 111.867 11.032C112.593 11.5867 113.147 12.2693 113.531 13.08C113.915 13.8907 114.107 14.84 114.107 15.928C114.107 17.528 113.702 18.8827 112.891 19.992C112.102 21.08 111.025 21.912 109.659 22.488C108.315 23.0427 106.79 23.32 105.083 23.32Z" fill="#FFFEFA"/>
<path d="M129.902 23V0.599998H135.566L146.446 15.512L145.134 15.192C145.028 14.4027 144.932 13.688 144.846 13.048C144.782 12.408 144.718 11.8 144.654 11.224C144.612 10.648 144.569 10.072 144.526 9.496C144.505 8.92 144.494 8.29067 144.494 7.608C144.494 6.92533 144.494 6.15733 144.494 5.304V0.599998H150.606V23H144.878L133.166 7L135.374 7.544C135.481 8.41867 135.566 9.176 135.63 9.816C135.716 10.456 135.78 11.032 135.822 11.544C135.865 12.056 135.897 12.5467 135.918 13.016C135.961 13.4853 135.982 13.9867 135.982 14.52C136.004 15.0533 136.014 15.6613 136.014 16.344V23H129.902ZM156.573 23V0.599998H172.861V5.816H162.653V17.784H173.341V23H156.573ZM159.581 14.104V9.176H171.581V14.104H159.581ZM182.019 23L175.523 0.599998H181.891L184.803 11.352C184.953 11.9707 185.081 12.5787 185.187 13.176C185.315 13.752 185.411 14.296 185.475 14.808C185.539 15.2987 185.593 15.7573 185.635 16.184C185.678 16.6107 185.71 16.9627 185.731 17.24H185.123C185.187 16.6 185.241 15.9813 185.283 15.384C185.347 14.7653 185.443 14.136 185.571 13.496C185.699 12.8347 185.891 12.12 186.147 11.352L189.155 3.096H194.051L197.027 11.352C197.326 12.1627 197.55 12.9093 197.699 13.592C197.87 14.2533 197.998 14.8827 198.083 15.48C198.169 16.0773 198.233 16.6533 198.275 17.208L197.731 17.24C197.753 16.92 197.763 16.6 197.763 16.28C197.763 15.96 197.774 15.6293 197.795 15.288C197.817 14.9253 197.849 14.5413 197.891 14.136C197.934 13.7307 197.998 13.304 198.083 12.856C198.169 12.3867 198.275 11.8853 198.403 11.352L201.315 0.599998H207.491L200.963 23H196.035L190.979 10.616H191.747L187.203 23H182.019ZM218.033 23.32C216.433 23.32 215.004 23.1387 213.745 22.776C212.508 22.4133 211.409 21.8907 210.449 21.208C209.511 20.5253 208.668 19.7253 207.921 18.808L211.633 14.616C212.7 16.0027 213.799 16.9307 214.929 17.4C216.06 17.848 217.159 18.072 218.225 18.072C218.695 18.072 219.121 18.0293 219.505 17.944C219.889 17.8373 220.177 17.6773 220.369 17.464C220.583 17.2293 220.689 16.9413 220.689 16.6C220.689 16.3013 220.604 16.0453 220.433 15.832C220.263 15.6187 220.028 15.4373 219.729 15.288C219.431 15.1173 219.1 14.968 218.737 14.84C218.375 14.712 218.012 14.616 217.649 14.552C217.287 14.4667 216.935 14.3813 216.593 14.296C215.335 14.0187 214.236 13.6667 213.297 13.24C212.359 12.8133 211.569 12.312 210.929 11.736C210.311 11.1387 209.841 10.456 209.521 9.688C209.223 8.92 209.073 8.056 209.073 7.096C209.073 6.05067 209.319 5.09067 209.809 4.216C210.3 3.34133 210.951 2.59467 211.761 1.976C212.572 1.336 213.5 0.855999 214.545 0.535999C215.612 0.194665 216.721 0.0239983 217.873 0.0239983C219.452 0.0239983 220.796 0.183999 221.905 0.504C223.015 0.802666 223.943 1.24 224.689 1.816C225.457 2.392 226.119 3.064 226.673 3.832L222.897 7.48C222.449 6.98933 221.959 6.584 221.425 6.264C220.913 5.944 220.38 5.70933 219.825 5.56C219.271 5.38933 218.705 5.304 218.129 5.304C217.596 5.304 217.127 5.35733 216.721 5.464C216.337 5.57067 216.039 5.73067 215.825 5.944C215.612 6.136 215.505 6.40267 215.505 6.744C215.505 7.04267 215.623 7.30933 215.857 7.544C216.092 7.75733 216.391 7.93867 216.753 8.088C217.116 8.23733 217.5 8.36533 217.905 8.472C218.332 8.55733 218.716 8.632 219.057 8.696C220.231 8.93067 221.297 9.24 222.257 9.624C223.239 9.98667 224.092 10.456 224.817 11.032C225.543 11.5867 226.097 12.2693 226.481 13.08C226.865 13.8907 227.057 14.84 227.057 15.928C227.057 17.528 226.652 18.8827 225.841 19.992C225.052 21.08 223.975 21.912 222.609 22.488C221.265 23.0427 219.74 23.32 218.033 23.32Z" fill="#CF412B"/>
</svg>
