<svg xmlns="http://www.w3.org/2000/svg" width="222" height="24" viewBox="0 0 222 24" fill="none"><path d="M0.984125 23V0.599998H6.64813L17.5281 15.512L16.2161 15.192C16.1095 14.4027 16.0135 13.688 15.9281 13.048C15.8641 12.408 15.8001 11.8 15.7361 11.224C15.6935 10.648 15.6508 10.072 15.6081 9.496C15.5868 8.92 15.5761 8.29067 15.5761 7.608C15.5761 6.92533 15.5761 6.15733 15.5761 5.304V0.599998H21.6881V23H15.9601L4.24813 7L6.45613 7.544C6.56279 8.41867 6.64813 9.176 6.71213 9.816C6.79746 10.456 6.86146 11.032 6.90413 11.544C6.94679 12.056 6.97879 12.5467 7.00013 13.016C7.04279 13.4853 7.06413 13.9867 7.06413 14.52C7.08546 15.0533 7.09613 15.6613 7.09613 16.344V23H0.984125ZM27.0154 23V0.599998H43.3034V5.816H33.0954V17.784H43.7834V23H27.0154ZM30.0234 14.104V9.176H42.0234V14.104H30.0234ZM61.0371 23L54.0931 12.952L45.1971 0.599998H52.8451L59.6291 10.52L68.6851 23H61.0371ZM45.0371 23L53.5811 10.808L58.9891 13.336L52.3651 23H45.0371ZM60.1411 12.6L54.7651 10.168L61.0371 0.599998H68.3651L60.1411 12.6ZM80.3691 23.192C78.4705 23.192 76.7745 22.8187 75.2811 22.072C73.8091 21.304 72.6465 20.2587 71.7931 18.936C70.9611 17.6133 70.5451 16.0987 70.5451 14.392V0.599998H76.9451V14.104C76.9451 14.808 77.0945 15.4373 77.3931 15.992C77.6918 16.5253 78.0971 16.952 78.6091 17.272C79.1425 17.5707 79.7291 17.72 80.3691 17.72C81.0731 17.72 81.6918 17.5707 82.2251 17.272C82.7585 16.952 83.1851 16.5253 83.5051 15.992C83.8251 15.4373 83.9851 14.808 83.9851 14.104V0.599998H90.1931V14.392C90.1931 16.0987 89.7665 17.6133 88.9131 18.936C88.0811 20.2587 86.9291 21.304 85.4571 22.072C83.9851 22.8187 82.2891 23.192 80.3691 23.192ZM102.852 23.32C101.252 23.32 99.8223 23.1387 98.5636 22.776C97.3263 22.4133 96.2276 21.8907 95.2676 21.208C94.329 20.5253 93.4863 19.7253 92.7396 18.808L96.4516 14.616C97.5183 16.0027 98.617 16.9307 99.7476 17.4C100.878 17.848 101.977 18.072 103.044 18.072C103.513 18.072 103.94 18.0293 104.324 17.944C104.708 17.8373 104.996 17.6773 105.188 17.464C105.401 17.2293 105.508 16.9413 105.508 16.6C105.508 16.3013 105.422 16.0453 105.252 15.832C105.081 15.6187 104.846 15.4373 104.548 15.288C104.249 15.1173 103.918 14.968 103.556 14.84C103.193 14.712 102.83 14.616 102.468 14.552C102.105 14.4667 101.753 14.3813 101.412 14.296C100.153 14.0187 99.0543 13.6667 98.1156 13.24C97.177 12.8133 96.3876 12.312 95.7476 11.736C95.129 11.1387 94.6596 10.456 94.3396 9.688C94.041 8.92 93.8916 8.056 93.8916 7.096C93.8916 6.05067 94.137 5.09067 94.6276 4.216C95.1183 3.34133 95.769 2.59467 96.5796 1.976C97.3903 1.336 98.3183 0.855999 99.3636 0.535999C100.43 0.194665 101.54 0.0239983 102.692 0.0239983C104.27 0.0239983 105.614 0.183999 106.724 0.504C107.833 0.802666 108.761 1.24 109.508 1.816C110.276 2.392 110.937 3.064 111.492 3.832L107.716 7.48C107.268 6.98933 106.777 6.584 106.244 6.264C105.732 5.944 105.198 5.70933 104.644 5.56C104.089 5.38933 103.524 5.304 102.948 5.304C102.414 5.304 101.945 5.35733 101.54 5.464C101.156 5.57067 100.857 5.73067 100.644 5.944C100.43 6.136 100.324 6.40267 100.324 6.744C100.324 7.04267 100.441 7.30933 100.676 7.544C100.91 7.75733 101.209 7.93867 101.572 8.088C101.934 8.23733 102.318 8.36533 102.724 8.472C103.15 8.55733 103.534 8.632 103.876 8.696C105.049 8.93067 106.116 9.24 107.076 9.624C108.057 9.98667 108.91 10.456 109.636 11.032C110.361 11.5867 110.916 12.2693 111.3 13.08C111.684 13.8907 111.876 14.84 111.876 15.928C111.876 17.528 111.47 18.8827 110.66 19.992C109.87 21.08 108.793 21.912 107.428 22.488C106.084 23.0427 104.558 23.32 102.852 23.32Z" fill="#1F1F1F"></path><path d="M126.39 23V0.599998H132.054L142.934 15.512L141.622 15.192C141.516 14.4027 141.42 13.688 141.334 13.048C141.27 12.408 141.206 11.8 141.142 11.224C141.1 10.648 141.057 10.072 141.014 9.496C140.993 8.92 140.982 8.29067 140.982 7.608C140.982 6.92533 140.982 6.15733 140.982 5.304V0.599998H147.094V23H141.366L129.654 7L131.862 7.544C131.969 8.41867 132.054 9.176 132.118 9.816C132.204 10.456 132.268 11.032 132.31 11.544C132.353 12.056 132.385 12.5467 132.406 13.016C132.449 13.4853 132.47 13.9867 132.47 14.52C132.492 15.0533 132.502 15.6613 132.502 16.344V23H126.39ZM152.422 23V0.599998H168.71V5.816H158.502V17.784H169.19V23H152.422ZM155.43 14.104V9.176H167.43V14.104H155.43ZM177.227 23L170.731 0.599998H177.099L180.011 11.352C180.161 11.9707 180.289 12.5787 180.395 13.176C180.523 13.752 180.619 14.296 180.683 14.808C180.747 15.2987 180.801 15.7573 180.843 16.184C180.886 16.6107 180.918 16.9627 180.939 17.24H180.331C180.395 16.6 180.449 15.9813 180.491 15.384C180.555 14.7653 180.651 14.136 180.779 13.496C180.907 12.8347 181.099 12.12 181.355 11.352L184.363 3.096H189.259L192.235 11.352C192.534 12.1627 192.758 12.9093 192.907 13.592C193.078 14.2533 193.206 14.8827 193.291 15.48C193.377 16.0773 193.441 16.6533 193.483 17.208L192.939 17.24C192.961 16.92 192.971 16.6 192.971 16.28C192.971 15.96 192.982 15.6293 193.003 15.288C193.025 14.9253 193.057 14.5413 193.099 14.136C193.142 13.7307 193.206 13.304 193.291 12.856C193.377 12.3867 193.483 11.8853 193.611 11.352L196.523 0.599998H202.699L196.171 23H191.243L186.187 10.616H186.955L182.411 23H177.227ZM212.602 23.32C211.002 23.32 209.572 23.1387 208.314 22.776C207.076 22.4133 205.978 21.8907 205.018 21.208C204.079 20.5253 203.236 19.7253 202.49 18.808L206.202 14.616C207.268 16.0027 208.367 16.9307 209.498 17.4C210.628 17.848 211.727 18.072 212.794 18.072C213.263 18.072 213.69 18.0293 214.074 17.944C214.458 17.8373 214.746 17.6773 214.938 17.464C215.151 17.2293 215.258 16.9413 215.258 16.6C215.258 16.3013 215.172 16.0453 215.002 15.832C214.831 15.6187 214.596 15.4373 214.298 15.288C213.999 15.1173 213.668 14.968 213.306 14.84C212.943 14.712 212.58 14.616 212.218 14.552C211.855 14.4667 211.503 14.3813 211.162 14.296C209.903 14.0187 208.804 13.6667 207.866 13.24C206.927 12.8133 206.138 12.312 205.498 11.736C204.879 11.1387 204.41 10.456 204.09 9.688C203.791 8.92 203.642 8.056 203.642 7.096C203.642 6.05067 203.887 5.09067 204.378 4.216C204.868 3.34133 205.519 2.59467 206.33 1.976C207.14 1.336 208.068 0.855999 209.114 0.535999C210.18 0.194665 211.29 0.0239983 212.442 0.0239983C214.02 0.0239983 215.364 0.183999 216.474 0.504C217.583 0.802666 218.511 1.24 219.258 1.816C220.026 2.392 220.687 3.064 221.242 3.832L217.466 7.48C217.018 6.98933 216.527 6.584 215.994 6.264C215.482 5.944 214.948 5.70933 214.394 5.56C213.839 5.38933 213.274 5.304 212.698 5.304C212.164 5.304 211.695 5.35733 211.29 5.464C210.906 5.57067 210.607 5.73067 210.394 5.944C210.18 6.136 210.074 6.40267 210.074 6.744C210.074 7.04267 210.191 7.30933 210.426 7.544C210.66 7.75733 210.959 7.93867 211.322 8.088C211.684 8.23733 212.068 8.36533 212.474 8.472C212.9 8.55733 213.284 8.632 213.626 8.696C214.799 8.93067 215.866 9.24 216.826 9.624C217.807 9.98667 218.66 10.456 219.386 11.032C220.111 11.5867 220.666 12.2693 221.05 13.08C221.434 13.8907 221.626 14.84 221.626 15.928C221.626 17.528 221.22 18.8827 220.41 19.992C219.62 21.08 218.543 21.912 217.178 22.488C215.834 23.0427 214.308 23.32 212.602 23.32Z" fill="#CF412B"></path></svg>